<svg width="32" height="21" viewBox="0 0 32 21" fill="none" xmlns="http://www.w3.org/2000/svg">
<path fill-rule="evenodd" clip-rule="evenodd" d="M30 0H2C0.9 0 0 0.9 0 2V19C0 20.1 0.9 21 2 21H30C31.1 21 32 20.1 32 19V2C32 0.9 31.1 0 30 0Z" fill="#3498D8"/>
<path fill-rule="evenodd" clip-rule="evenodd" d="M6.6999 10.8H8.2999L7.4999 8.8L6.6999 10.8ZM28.9999 7H24.8999L23.8999 8.1L22.9999 7H14.2999L13.4999 8.8L12.6999 7H9.1999V7.8L8.7999 7H5.7999L2.8999 14H6.3999L6.7999 12.9H7.7999L8.1999 14H12.0999V13.2L12.3999 14H14.3999L14.6999 13.1V14H22.6999L23.6999 12.9L24.5999 14H28.6999L26.0999 10.5L28.9999 7ZM16.8999 13H15.7999V9.1L14.0999 13H13.0999L11.3999 9.1V13H9.0999L8.6999 11.9H6.2999L5.8999 13H4.5999L6.6999 8H8.3999L10.2999 12.7V8H12.1999L13.6999 11.4L15.0999 8H16.9999V13H16.8999ZM26.7999 13H25.2999L23.9999 11.3L22.4999 13H17.9999V8H22.5999L23.9999 9.6L25.4999 8H26.8999L24.6999 10.5L26.7999 13ZM19.0999 9V9.9H21.5999V10.9H19.0999V11.9H21.8999L23.1999 10.4L21.9999 9H19.0999Z" fill="white"/>
</svg>
