<svg width="102" height="102" viewBox="0 0 102 102" fill="none" xmlns="http://www.w3.org/2000/svg">
<path d="M9.00002 37H14.204H16.8059H19.4079H24.6118H29.8158H32.4178H35.0197H40.2237H45.4276H50.6316H93V77H32.4178V67H24.6118V57H16.8059V47H9L9.00002 37Z" stroke="white" stroke-width="3" stroke-linecap="round" stroke-linejoin="round"/>
<line x1="1.5" y1="36.4897" x2="100.5" y2="36.4897" stroke="white" stroke-width="3" stroke-linecap="round" stroke-linejoin="round"/>
<path d="M76.5 72L76.5 42M76.5 72L82 72M76.5 72L71 72M76.5 42L82 42M76.5 42L71 42" stroke="white" stroke-width="3" stroke-linecap="round" stroke-linejoin="round"/>
<path d="M53.5 72L53.5 42M53.5 72L59 72M53.5 72L48 72M53.5 42L59 42M53.5 42L48 42" stroke="white" stroke-width="3" stroke-linecap="round" stroke-linejoin="round"/>
</svg>
