<svg width="32" height="21" viewBox="0 0 32 21" fill="none" xmlns="http://www.w3.org/2000/svg">
<g clip-path="url(#clip0_224:124)">
<path d="M29.5601 20.6259H2.43967C1.29887 20.6259 0.374023 19.7009 0.374023 18.56V2.43999C0.374023 1.29898 1.29887 0.374146 2.43967 0.374146H29.5601C30.701 0.374146 31.6257 1.29898 31.6257 2.43999V18.56C31.6257 19.7009 30.701 20.6259 29.5601 20.6259Z" fill="#F9F9F9"/>
<path fill-rule="evenodd" clip-rule="evenodd" d="M2.43975 0.748284C1.50555 0.748284 0.748212 1.50562 0.748212 2.43999V18.56C0.748212 19.4943 1.50556 20.2517 2.43975 20.2517H29.5602C30.4944 20.2517 31.2517 19.4943 31.2517 18.56V2.43999C31.2517 1.50561 30.4944 0.748284 29.5602 0.748284H2.43975ZM0 2.43999C0 1.09233 1.09235 0 2.43975 0H29.5602C30.9077 0 31.9999 1.09234 31.9999 2.43999V18.56C31.9999 19.9075 30.9077 21 29.5602 21H2.43975C1.09234 21 0 19.9076 0 18.56V2.43999Z" fill="#303030"/>
<path d="M3.23975 12.556C3.23975 11.1765 3.23975 9.81225 3.23975 8.44366C3.25571 8.4398 3.27025 8.43288 3.28489 8.43299C3.7406 8.43624 4.19784 8.41794 4.65172 8.44895C5.37901 8.49868 5.98886 8.79438 6.35886 9.44923C7.08747 10.7387 6.29236 12.3507 4.85182 12.5215C4.48955 12.5642 4.12036 12.5475 3.75423 12.5554C3.58595 12.559 3.41758 12.556 3.23975 12.556ZM4.04858 11.8494C4.2008 11.8494 4.34436 11.857 4.4869 11.8478C4.80414 11.8273 5.10326 11.7519 5.35003 11.533C5.91667 11.03 5.94869 10.0751 5.41927 9.52906C5.03717 9.13493 4.54994 9.12638 4.04858 9.13808C4.04858 10.0441 4.04858 10.9418 4.04858 11.8494Z" fill="#303030"/>
<path d="M26.0523 8.44061C26.0676 8.43695 26.0766 8.43288 26.0856 8.43299C26.5412 8.43614 26.9972 8.43186 27.4525 8.44743C27.6121 8.45292 27.7752 8.49126 27.9281 8.54138C28.447 8.7112 28.7354 9.15739 28.701 9.70396C28.6814 10.0158 28.6024 10.2998 28.3681 10.5234C28.2237 10.6612 28.0502 10.7438 27.861 10.7983C27.8335 10.8061 27.8061 10.8133 27.7666 10.8241C28.1966 11.3995 28.622 11.9688 29.0609 12.5559C28.8647 12.5559 28.6908 12.5559 28.5171 12.5559C28.3959 12.5559 28.2746 12.552 28.1538 12.5575C28.0875 12.5605 28.051 12.5354 28.0155 12.482C27.6802 11.9779 27.3417 11.4762 27.0055 10.9728C26.9712 10.9214 26.9393 10.8776 26.8571 10.9105C26.8571 11.4506 26.8571 11.9969 26.8571 12.5494C26.5828 12.5494 26.3203 12.5494 26.0522 12.5494C26.0523 11.1797 26.0523 9.81336 26.0523 8.44061ZM26.8579 10.3312C27.1104 10.3314 27.3597 10.3474 27.5877 10.2211C27.7976 10.1047 27.872 9.91351 27.8693 9.68391C27.8668 9.46275 27.7829 9.28601 27.5801 9.18249C27.3519 9.06597 27.1063 9.08182 26.8579 9.09048C26.8579 9.50627 26.8579 9.91321 26.8579 10.3312Z" fill="#303030"/>
<path d="M23.2456 8.43677C24.0026 8.43677 24.7534 8.43677 25.5118 8.43677C25.5118 8.66881 25.5118 8.89628 25.5118 9.1322C25.0276 9.1322 24.5443 9.1322 24.0533 9.1322C24.0533 9.43776 24.0533 9.73509 24.0533 10.0435C24.5197 10.0435 24.9835 10.0435 25.4543 10.0435C25.4543 10.2815 25.4543 10.5085 25.4543 10.7449C24.9865 10.7449 24.5227 10.7449 24.0524 10.7449C24.0524 11.1163 24.0524 11.4783 24.0524 11.852C24.5396 11.852 25.0252 11.852 25.5147 11.852C25.5147 12.089 25.5147 12.3142 25.5147 12.5477C24.7581 12.5477 24.0053 12.5477 23.2456 12.5477C23.2456 11.1807 23.2456 9.81471 23.2456 8.43677Z" fill="#303030"/>
<path d="M10.8094 8.82847C10.6674 9.01394 10.5305 9.1926 10.3903 9.37554C10.2364 9.21142 10.0737 9.07912 9.85275 9.05096C9.63161 9.0229 9.4246 9.05899 9.26029 9.22352C9.08296 9.40087 9.10361 9.66566 9.3157 9.79723C9.45785 9.88529 9.6188 9.94325 9.77122 10.0147C10.0041 10.1243 10.2449 10.2197 10.4681 10.3466C10.7907 10.53 10.9361 10.8268 10.9508 11.195C10.9702 11.6822 10.8227 12.0945 10.4188 12.3891C10.1141 12.6114 9.76369 12.6735 9.39379 12.6518C8.83081 12.6188 8.41739 12.3392 8.11816 11.8908C8.28401 11.7134 8.44617 11.5401 8.60204 11.3734C8.70291 11.4897 8.78292 11.6069 8.88663 11.6966C9.11815 11.8969 9.39349 11.9622 9.69089 11.8884C9.99286 11.8135 10.1743 11.5203 10.1108 11.233C10.0778 11.0836 9.99094 10.9696 9.85744 10.9027C9.70696 10.8274 9.54814 10.7686 9.39288 10.703C9.22583 10.6324 9.05472 10.5701 8.89264 10.4895C8.37349 10.2314 8.21446 9.78107 8.36231 9.21936C8.48603 8.74967 8.91501 8.42082 9.44545 8.37385C9.94519 8.32941 10.3899 8.4734 10.7769 8.79361C10.7866 8.80142 10.7941 8.81189 10.8094 8.82847Z" fill="#303030"/>
<path d="M18.9248 8.43236C19.2065 8.43236 19.4801 8.43003 19.7534 8.43602C19.7789 8.43653 19.8133 8.48493 19.8267 8.51798C20.1108 9.22764 20.3923 9.93863 20.6746 10.6492C20.744 10.8238 20.814 10.9981 20.8904 11.1892C20.9099 11.1458 20.9244 11.1162 20.9367 11.086C21.2814 10.2287 21.6265 9.37172 21.9694 8.51391C21.9925 8.45636 22.0181 8.4289 22.0857 8.43022C22.3437 8.43469 22.6018 8.43206 22.8749 8.43206C22.8594 8.47293 22.8484 8.50456 22.8355 8.53517C22.2679 9.88291 21.6997 11.2301 21.1343 12.5786C21.1075 12.6428 21.0747 12.6647 21.0078 12.6609C20.9157 12.6555 20.8225 12.6644 20.7307 12.6569C20.6982 12.6543 20.6513 12.628 20.6399 12.6005C20.0682 11.227 19.4997 9.8521 18.9311 8.4772C18.9277 8.46897 18.9284 8.45891 18.9248 8.43236Z" fill="#303030"/>
<path d="M14.3879 9.52732C14.2585 9.43032 14.1479 9.3327 14.0238 9.25715C13.5449 8.96551 12.9297 9.03375 12.4977 9.41822C11.8529 9.99233 11.8829 11.1128 12.5567 11.6318C13.0619 12.021 13.7664 12.001 14.2487 11.5838C14.2892 11.5487 14.3294 11.5132 14.3881 11.4622C14.3881 11.5237 14.3881 11.5663 14.3881 11.609C14.388 11.8514 14.3868 12.0938 14.3892 12.3363C14.3897 12.3877 14.3738 12.4149 14.3258 12.4379C13.3419 12.9075 12.136 12.5871 11.5503 11.6819C10.742 10.4325 11.3816 8.72441 12.9328 8.38956C13.4124 8.28625 13.8779 8.3377 14.3187 8.56232C14.3472 8.57686 14.3845 8.61204 14.3849 8.63828C14.3896 8.93083 14.3879 9.22369 14.3879 9.52732Z" fill="#303030"/>
<path d="M18.9103 10.4977C18.9287 11.5945 18.026 12.4899 16.8818 12.4882C15.7301 12.4865 14.8456 11.629 14.8521 10.4744C14.8585 9.38425 15.7545 8.52491 16.8827 8.51798C18.0319 8.51097 18.9286 9.41404 18.9103 10.4977Z" fill="#FF6F00"/>
<path d="M7.79946 12.5508C7.53194 12.5508 7.27197 12.5508 7.00537 12.5508C7.00537 11.1797 7.00537 9.81372 7.00537 8.43994C7.26922 8.43994 7.53114 8.43994 7.79946 8.43994C7.79946 9.80833 7.79946 11.1744 7.79946 12.5508Z" fill="#303030"/>
</g>
<defs>
<clipPath id="clip0_224:124">
<rect width="32" height="21" fill="white"/>
</clipPath>
</defs>
</svg>
