<svg width="32" height="21" viewBox="0 0 32 21" fill="none" xmlns="http://www.w3.org/2000/svg">
<rect width="32" height="21" fill="white"/>
<path d="M19.3896 4.99707H13.2646V16.0038H19.3896V4.99707Z" fill="#FF5F00"/>
<path d="M13.6522 10.5C13.6512 9.43996 13.8914 8.3936 14.3546 7.44012C14.8178 6.48665 15.4919 5.65106 16.3258 4.9966C15.2931 4.18492 14.053 3.68015 12.747 3.53998C11.441 3.39981 10.122 3.62989 8.94063 4.20394C7.75926 4.77799 6.76322 5.67284 6.06638 6.78621C5.36954 7.89957 5 9.18653 5 10.5C5 11.8134 5.36954 13.1004 6.06638 14.2138C6.76322 15.3271 7.75926 16.222 8.94063 16.796C10.122 17.3701 11.441 17.6002 12.747 17.46C14.053 17.3198 15.2931 16.8151 16.3258 16.0034C15.4919 15.3489 14.8179 14.5133 14.3547 13.5598C13.8915 12.6064 13.6512 11.56 13.6522 10.5V10.5Z" fill="#EB001B"/>
<path d="M27.6526 10.5C27.6526 11.8134 27.2831 13.1004 26.5863 14.2137C25.8895 15.3271 24.8935 16.222 23.7122 16.796C22.5308 17.3701 21.2118 17.6002 19.9059 17.46C18.5999 17.3198 17.3598 16.8151 16.3271 16.0034C17.1603 15.3483 17.8338 14.5125 18.297 13.5592C18.7601 12.6059 19.0007 11.5599 19.0007 10.5C19.0007 9.44012 18.7601 8.39409 18.297 7.44077C17.8338 6.48745 17.1603 5.65172 16.3271 4.9966C17.3598 4.18492 18.5999 3.68014 19.9059 3.53998C21.2118 3.39981 22.5308 3.6299 23.7122 4.20396C24.8935 4.77801 25.8895 5.67286 26.5863 6.78623C27.2831 7.89959 27.6526 9.18655 27.6526 10.5V10.5Z" fill="#F79E1B"/>
<path d="M26.9814 14.8374V14.612H27.0722V14.5661H26.8408V14.612H26.9317V14.8374H26.9814ZM27.4306 14.8374V14.5657H27.3597L27.2781 14.7526L27.1965 14.5657H27.1255V14.8374H27.1756V14.6324L27.2521 14.8091H27.3041L27.3806 14.632V14.8374H27.4306Z" fill="#F79E1B"/>
</svg>
