<svg width="33" height="21" viewBox="0 0 33 21" fill="none" xmlns="http://www.w3.org/2000/svg">
<path d="M33 0H0V20.8945H33V0Z" fill="white"/>
<path d="M32.4482 17.4984H0.547852V20.3491H32.4482V17.4984Z" fill="#FCB315"/>
<path d="M32.4482 0.546021H0.547852V3.39673H32.4482V0.546021Z" fill="#0D357F"/>
<path d="M16.2323 6.53939L14.5508 14.375H12.517L14.1987 6.53939H16.2323ZM24.7885 11.5989L25.8591 8.6564L26.475 11.5989H24.7885ZM27.0587 14.375H28.9391L27.2961 6.53939H25.5615C25.1704 6.53939 24.841 6.76537 24.6951 7.11379L21.6434 14.375H23.7794L24.2033 13.2047H26.8121L27.0587 14.375ZM21.7494 11.8168C21.7583 9.74902 18.8815 9.63435 18.9006 8.71046C18.9068 8.42965 19.1754 8.13057 19.763 8.05413C20.0542 8.01667 20.8578 7.98651 21.7688 8.40483L22.1251 6.74253C21.6356 6.56619 21.006 6.39624 20.2227 6.39624C18.2121 6.39624 16.7977 7.46069 16.7864 8.98624C16.7736 10.1143 17.7969 10.7433 18.5661 11.1189C19.3592 11.503 19.625 11.7494 19.6212 12.0925C19.6157 12.6182 18.9885 12.8508 18.4049 12.8597C17.3818 12.8755 16.7889 12.584 16.3162 12.3645L15.947 14.0822C16.423 14.2993 17.3 14.4883 18.208 14.4981C20.3454 14.4981 21.7431 13.446 21.7494 11.8168ZM13.3263 6.53939L10.031 14.375H7.88145L6.25972 8.12159C6.16148 7.73708 6.07577 7.59576 5.77679 7.43328C5.28774 7.16846 4.48031 6.92085 3.77051 6.76674L3.81848 6.53939H7.2792C7.71997 6.53939 8.11658 6.83177 8.21741 7.3378L9.07404 11.8723L11.1897 6.53939H13.3263Z" fill="#0D357F"/>
</svg>
