<svg width="102" height="102" viewBox="0 0 102 102" fill="none" xmlns="http://www.w3.org/2000/svg">
<path d="M58.1428 22.8477H44.8571H31.5714M58.1428 22.8477H71.4285H84.7142M58.1428 22.8477V36.483M31.5714 22.8477V36.483M31.5714 22.8477H18.2857H5V36.483M5 50.1183V36.483M5 50.1183V63.7537M5 50.1183H11.6429M5 36.483H18.2857M84.7142 22.8477L97.9999 22.8477L97.9999 36.483M84.7142 22.8477V36.483M97.9999 50.1183L97.9999 36.483M97.9999 50.1183L98 63.7537M97.9999 50.1183H91.3571M97.9999 36.483H84.7142M98 63.7537L98 77.389H81.8925M98 63.7537H91.3571M5 63.7537V77.389H24.9286M5 63.7537H11.6429M31.5714 36.483H18.2857M31.5714 36.483H44.8571M18.2857 36.483V50.1183M18.2857 50.1183H11.6429M18.2857 50.1183H31.5714H38.2143M58.1428 36.483H44.8571M58.1428 36.483H71.4285M44.8571 36.483V50.1183M44.8571 50.1183H38.2143M44.8571 50.1183H58.1428H64.7857M71.4285 50.1183V36.483M71.4285 50.1183H64.7857M71.4285 50.1183H78.0714H84.7142H91.3571M71.4285 36.483H84.7142M11.6429 50.1183V63.7537M38.2143 50.1183V63.7537M38.2143 63.7537H24.9286M38.2143 63.7537H48.1785H53.1607M11.6429 63.7537H24.9286M64.7857 50.1183V63.7537M24.9286 63.7537V77.389M24.9286 77.389H53.1607M53.1607 63.7537H58.1428H64.7857M53.1607 63.7537V77.389M53.1607 77.389H81.8925M81.8925 63.7537V77.389M81.8925 63.7537H64.7857M81.8925 63.7537H91.3571M91.3571 50.1183V63.7537" stroke="white" stroke-width="3" stroke-linecap="round" stroke-linejoin="round"/>
</svg>
