<svg width="689" height="707" viewBox="0 0 689 707" fill="none" xmlns="http://www.w3.org/2000/svg">
<g clip-path="url(#clip0_226:199)">
<path d="M650.952 672.292C651.048 672.292 651.144 672.387 651.144 672.387C652.2 673.155 653.64 675.076 655.368 678.244L657.672 682.275H662.664L659.495 677.284C658.055 674.979 656.808 673.251 655.752 672.292C655.272 671.715 654.503 671.331 653.64 670.947C655.848 670.756 657.576 669.987 658.824 668.547C660.167 667.204 660.84 665.572 660.84 663.748C660.84 662.404 660.456 661.155 659.688 660.004C658.92 658.851 657.864 658.084 656.52 657.603C655.368 657.219 653.544 656.931 650.952 656.931V660.292C652.488 660.387 653.64 660.483 654.216 660.771C654.888 661.06 655.464 661.443 655.943 662.116C656.328 662.692 656.52 663.363 656.52 664.132C656.52 665.284 656.04 666.244 655.176 666.916C654.408 667.491 653.064 667.875 650.952 667.972V672.292ZM650.952 692.835V688.9C651.24 688.9 651.528 688.9 651.719 688.9C655.08 688.9 658.344 688.035 661.416 686.307C664.584 684.58 666.984 682.084 668.712 679.012C670.44 675.844 671.304 672.58 671.304 669.219C671.304 665.763 670.44 662.499 668.712 659.427C666.888 656.259 664.488 653.763 661.32 652.132C658.152 650.404 654.984 649.539 651.719 649.539C651.528 649.539 651.24 649.539 650.952 649.539V645.603C651.24 645.603 651.528 645.603 651.719 645.603C655.656 645.603 659.495 646.659 663.24 648.676C666.984 650.692 669.96 653.667 672.072 657.411C674.184 661.155 675.24 665.092 675.24 669.219C675.24 673.251 674.184 677.188 672.072 680.931C670.055 684.676 667.08 687.651 663.336 689.667C659.688 691.778 655.752 692.835 651.719 692.835C651.528 692.835 651.24 692.835 650.952 692.835ZM641.256 656.931V682.275H645.384V671.427H647.784C649.128 671.427 650.184 671.715 650.952 672.292V667.972C650.76 667.972 650.568 667.972 650.376 667.972H645.384V660.292H650.088C650.472 660.292 650.76 660.292 650.952 660.292V656.931C650.664 656.931 650.376 656.931 649.992 656.931H641.256ZM650.952 645.603V649.539C647.88 649.636 644.905 650.499 641.928 652.132C638.856 653.763 636.36 656.259 634.632 659.427C632.905 662.499 631.943 665.763 631.943 669.219C631.943 672.58 632.808 675.844 634.536 679.012C636.36 682.084 638.76 684.58 641.832 686.307C644.808 687.939 647.784 688.804 650.952 688.9V692.835C647.112 692.739 643.464 691.684 639.912 689.667C636.167 687.651 633.288 684.676 631.176 680.931C629.16 677.188 628.104 673.251 628.104 669.219C628.104 665.092 629.064 661.155 631.176 657.411C633.288 653.667 636.264 650.692 640.104 648.676C643.656 646.756 647.208 645.699 650.952 645.603Z" fill="#93889D"/>
<path d="M487.56 209.092L453.48 174.819L428.614 149.859L392.232 149.763L344.808 149.668H297.288L261.192 149.571L243.24 167.523L236.04 174.628L216.168 194.499L184.872 225.796L142.632 267.843L142.344 435.172L184.872 477.796L201.576 494.595L184.872 511.3L168.264 527.811C105.384 464.835 80.9032 373.059 104.039 287.14C117.575 236.835 146.184 193.059 184.872 160.707C194.664 152.548 205.128 145.059 216.168 138.34C222.6 134.499 229.32 130.947 236.04 127.587C238.406 126.452 240.772 125.41 243.138 124.367L243.24 124.323C255.144 118.947 267.528 114.628 280.296 111.171C285.96 109.635 291.624 108.387 297.288 107.235C313.128 104.163 329.064 102.723 344.808 102.723H345.288C361.128 102.723 376.872 104.356 392.232 107.332C413.448 111.459 433.992 118.275 453.48 127.78C478.152 139.78 501 155.811 520.872 175.78L487.56 209.092Z" fill="#231F20"/>
<path d="M473.256 223.3L453.48 203.523L433.704 183.748C433.8 207.556 436.584 231.363 441.96 254.595L453.48 243.076L473.256 223.3Z" fill="#231F20"/>
<path d="M425.16 271.3C414.024 268.228 403.08 264.675 392.232 260.452C375.912 254.211 360.072 246.628 344.808 237.892C344.808 237.796 344.808 237.796 344.712 237.796C329.64 246.532 313.704 254.02 297.288 260.356C286.44 264.483 275.4 268.035 264.072 271.108C258.792 290.499 251.88 309.316 243.24 327.459C241.032 332.356 238.632 337.059 236.04 341.763C234.312 345.123 232.488 348.387 230.568 351.651C232.488 354.819 234.312 358.18 236.04 361.54C238.632 366.34 241.032 371.14 243.24 376.035C251.784 394.18 258.696 412.995 263.88 432.387L247.176 448.9C245.928 448.611 244.585 448.323 243.241 448.035L243.24 448.035C240.84 447.46 238.44 446.979 236.04 446.499C229.512 445.155 222.888 444.099 216.168 443.236C205.8 441.891 195.336 441.028 184.872 440.644C181.992 440.547 179.112 440.452 176.136 440.452L184.872 449.188L215.88 480.292L216.168 480.004L236.04 460.132L243.24 453.028L263.88 432.387L297.288 398.979L344.808 351.556L392.232 304.228L425.16 271.3Z" fill="#231F20"/>
<path d="M413.544 185.955C406.726 192.58 399.624 199.011 392.232 205.059C383.304 212.356 374.088 219.267 364.39 225.699C373.512 230.499 382.824 234.819 392.232 238.756C401.352 242.499 410.664 245.86 420.072 248.74C415.942 228.099 413.83 207.076 413.544 185.955Z" fill="#231F20"/>
<path d="M400.872 170.02H392.232L344.808 169.923L297.288 169.828H288.84C291.624 172.611 294.504 175.3 297.288 177.987C311.976 191.523 327.912 203.716 344.712 214.275C344.808 214.275 344.808 214.275 344.808 214.179C361.8 203.716 377.64 191.716 392.232 178.275C395.208 175.587 398.088 172.804 400.872 170.02Z" fill="#231F20"/>
<path d="M325.128 225.604C316.104 230.403 306.792 234.723 297.288 238.66C288.168 242.403 278.952 245.668 269.448 248.548C273.576 227.908 275.784 206.787 276.072 185.763C282.888 192.387 289.992 198.723 297.288 204.867C306.216 212.259 315.528 219.171 325.128 225.604Z" fill="#231F20"/>
<path d="M255.912 183.459L243.24 196.132L236.04 203.235L216.168 223.011L184.872 254.307L176.424 262.66C179.304 262.66 182.088 262.563 184.872 262.563C195.336 262.179 205.8 261.411 216.168 260.067C222.888 259.204 229.512 258.052 236.04 256.804C238.381 256.335 240.723 255.866 243.064 255.398L243.24 255.363C244.68 255.076 246.12 254.692 247.464 254.403C252.936 231.171 255.72 207.363 255.912 183.459Z" fill="#231F20"/>
<path d="M241.32 426.916C239.688 421.635 237.96 416.452 236.04 411.267C231.048 397.54 225.192 384.195 218.376 371.331C217.704 372.387 216.936 373.443 216.168 374.595C206.664 388.323 196.2 401.379 184.872 413.572C182.76 415.875 180.648 418.084 178.44 420.292C180.648 420.292 182.76 420.387 184.872 420.483C195.336 420.771 205.8 421.54 216.168 422.883C222.888 423.651 229.512 424.707 236.04 425.86C237.864 426.244 239.592 426.532 241.32 426.916Z" fill="#231F20"/>
<path d="M241.512 276.387C239.688 276.772 237.864 277.059 236.04 277.444C229.512 278.595 222.888 279.556 216.168 280.42C205.8 281.668 195.336 282.436 184.872 282.723C182.856 282.723 180.84 282.819 178.728 282.819C180.84 284.931 182.856 287.043 184.872 289.252C196.296 301.54 206.664 314.787 216.168 328.707C216.936 329.763 217.704 330.916 218.376 331.972C225.192 319.204 231.144 306.052 236.04 292.515C238.056 287.235 239.88 281.86 241.512 276.387Z" fill="#231F20"/>
<path d="M207.048 351.651C200.328 362.404 192.84 372.771 184.872 382.756C177.864 391.396 170.472 399.748 162.6 407.62L162.792 295.492C170.568 303.363 177.96 311.619 184.872 320.259C192.84 330.244 200.232 340.707 207.048 351.651Z" fill="#231F20"/>
<path fill-rule="evenodd" clip-rule="evenodd" d="M504.264 254.403L512.808 262.947C510.024 262.947 507.144 262.852 504.264 262.756C495.912 262.468 487.56 261.892 479.208 260.931C466.726 259.587 454.248 257.475 441.96 254.595L425.16 271.3C432.84 299.523 444.072 326.595 458.568 351.843C444.072 377.092 432.84 404.259 425.16 432.387C413.928 435.46 402.888 439.107 392.04 443.236C375.718 449.572 359.784 457.06 344.52 465.796C329.448 457.06 313.512 449.572 297.096 443.236C286.248 439.107 275.208 435.46 263.88 432.387L247.368 449.091C252.744 472.323 255.528 496.228 255.624 520.132L215.88 480.292L201.576 494.595L260.904 553.923H297.096H392.04H428.232L479.208 502.947L504.264 477.796L546.6 435.46V268.132L504.264 225.796L487.56 209.092L479.208 217.444L473.256 223.395L479.208 229.252L504.264 254.403ZM510.6 283.108C509.544 283.108 508.488 283.084 507.432 283.06C506.376 283.035 505.32 283.011 504.264 283.011C495.912 282.723 487.56 282.147 479.208 281.283C468.648 280.132 458.184 278.595 447.718 276.483C453.672 295.78 461.352 314.403 470.76 332.163L470.851 332.031C473.605 328.044 476.359 324.056 479.208 320.163C486.984 309.507 495.336 299.428 504.264 289.731C505.296 288.652 506.329 287.572 507.361 286.493L507.432 286.42L507.502 286.346C508.535 285.267 509.567 284.188 510.6 283.108ZM526.44 295.78C518.664 303.651 511.272 312.004 504.264 320.644C496.296 330.628 488.904 340.996 482.088 351.843C488.904 362.595 496.296 373.059 504.264 383.043C511.272 391.684 518.664 400.035 526.44 407.908V295.78ZM504.264 413.956C506.376 416.163 508.488 418.371 510.6 420.58C509.544 420.58 508.488 420.604 507.432 420.628C506.376 420.652 505.32 420.676 504.264 420.676C495.912 420.963 487.56 421.443 479.208 422.307C468.648 423.46 458.184 424.995 447.718 427.107C453.672 407.908 461.352 389.284 470.76 371.523C473.544 375.555 476.328 379.587 479.208 383.523C486.984 394.18 495.336 404.259 504.264 413.956ZM512.808 440.74C510.024 440.74 507.144 440.835 504.264 440.931C495.912 441.124 487.56 441.699 479.208 442.659C466.632 444.004 454.152 446.211 441.768 449.091C436.391 472.323 433.607 496.228 433.512 520.132L479.208 474.435L504.264 449.284L512.808 440.74ZM392.04 464.931C401.16 461.188 410.472 457.827 419.88 454.947C415.752 475.684 413.544 496.707 413.256 517.827C406.44 511.107 399.432 504.771 392.04 498.723C383.208 491.331 373.895 484.419 364.2 477.987C373.32 473.188 382.632 468.867 392.04 464.931ZM400.68 533.667C397.895 530.883 395.016 528.099 392.04 525.411C377.448 511.972 361.512 499.875 344.52 489.316C327.72 499.875 311.88 511.972 297.096 525.508C294.216 528.195 291.336 530.883 288.456 533.667H297.096H392.04H400.68ZM297.096 464.931C306.6 468.867 315.912 473.188 324.936 477.987C315.336 484.419 306.024 491.331 297.096 498.723C289.8 504.771 282.696 511.107 275.88 517.827C275.592 496.707 273.384 475.684 269.256 454.947C278.664 457.827 287.976 461.188 297.096 464.931Z" fill="#93889D"/>
<path d="M487.56 209.092L473.256 223.395L512.808 262.947C489 262.756 465.192 259.972 441.96 254.595L425.16 271.3C432.84 299.523 444.072 326.595 458.568 351.843C444.072 377.092 432.84 404.259 425.16 432.387C396.936 440.068 369.864 451.3 344.52 465.796C319.272 451.3 292.104 440.068 263.88 432.387L247.368 449.091C252.744 472.323 255.528 496.228 255.624 520.132L215.88 480.292L201.576 494.595L260.904 553.923H428.232L546.6 435.46V268.132L487.56 209.092ZM447.718 276.483C468.456 280.611 489.48 282.819 510.6 283.108C495.816 298.179 482.472 314.595 470.76 332.163C461.352 314.403 453.672 295.78 447.718 276.483ZM526.44 295.78V407.908C509.64 390.916 494.76 372.099 482.088 351.843C494.76 331.587 509.64 312.772 526.44 295.78ZM470.76 371.523C482.472 389.092 495.816 405.508 510.6 420.58C489.48 420.771 468.456 422.979 447.718 427.107C453.672 407.908 461.352 389.284 470.76 371.523V371.523ZM512.808 440.74L433.512 520.132C433.606 496.228 436.39 472.323 441.768 449.091C465.096 443.62 488.904 440.835 512.808 440.74V440.74ZM269.256 454.947C288.456 460.9 307.176 468.58 324.936 477.987C307.368 489.699 290.952 503.043 275.88 517.827C275.592 496.707 273.384 475.684 269.256 454.947V454.947ZM419.88 454.947C415.752 475.684 413.544 496.707 413.256 517.827C398.184 503.043 381.768 489.699 364.2 477.987C382.054 468.58 400.68 460.9 419.88 454.947ZM344.52 489.316C364.872 501.987 383.688 516.867 400.68 533.667H288.456C305.544 516.867 324.36 501.987 344.52 489.316Z" stroke="white" stroke-width="1.824"/>
<path d="M65.6399 253.347L53.1591 247.587V233.188L66.3118 239.332L73.2238 224.452C75.4315 219.748 76.4873 215.908 76.2957 212.931C75.8154 206.499 71.5915 201.411 63.6238 197.668C59.8795 195.94 56.4238 195.076 53.1591 194.979V182.02C53.4477 182.02 53.7358 182.02 53.9274 182.02C58.8233 181.923 63.9118 183.171 69.1919 185.668C78.5039 189.987 84.3597 196.132 86.5675 204.195C87.5279 207.556 87.6238 211.011 87.0471 214.66C86.4717 218.307 84.9353 222.628 82.6315 227.619L68.6154 257.86L67.2722 257.188C67.4634 256.132 67.4634 255.363 67.1758 254.787C66.9837 254.211 66.4077 253.731 65.6399 253.347ZM53.1591 247.587L19.7519 232.035C18.9837 231.651 18.2159 231.556 17.6399 231.748C17.0638 231.94 16.3919 232.42 15.7201 233.188L14.4717 232.611L28.4873 202.468C31.5597 195.843 34.6315 191.14 37.7998 188.259C42.2159 184.42 47.3998 182.307 53.1591 182.02V194.979C51.5279 194.979 49.8957 195.171 48.2634 195.651C45.8638 196.323 43.7519 197.668 42.1195 199.492C40.2957 201.316 38.5675 204.004 36.9353 207.556L30.0238 222.436L53.1591 233.188V247.587Z" fill="#231F20"/>
<path d="M126.119 154.084L89.4476 119.235C88.7757 118.66 88.1033 118.371 87.5278 118.371C86.856 118.275 86.0877 118.563 85.2237 119.14L84.168 118.179L97.0314 104.644L97.9914 105.604C97.5117 106.563 97.2237 107.332 97.3194 108.004C97.4158 108.58 97.7033 109.252 98.3752 109.828L135.048 144.58C135.72 145.252 136.392 145.54 137.064 145.635C137.64 145.635 138.408 145.347 139.272 144.772L140.328 145.731L127.463 159.267L126.504 158.307C126.984 157.347 127.272 156.58 127.176 155.908C127.08 155.332 126.791 154.66 126.119 154.084Z" fill="#231F20"/>
<path d="M209.256 78.1468L192.744 87.1709V77.8588L202.056 72.7722L192.744 65.6682V50.6922L229.608 76.6108C231.336 77.8588 232.776 78.6282 233.736 78.9162C234.696 79.1082 235.848 79.1082 237 78.7228L237.672 79.9722L218.376 90.4362L217.704 89.1882C219.24 88.0349 219.72 86.7868 218.952 85.4442C218.664 84.9628 217.992 84.2908 216.936 83.5228L209.256 78.1468ZM192.744 87.1709L185.448 91.1082L185.928 100.419C186.024 101.668 186.216 102.628 186.504 103.203C187.176 104.356 188.424 104.644 190.344 104.163L191.016 105.411L173.736 114.819L173.064 113.668C173.928 112.899 174.504 112.132 174.792 111.267C175.08 110.499 175.08 109.155 174.984 107.235L172.296 56.4522C172.2 54.8189 171.912 53.6682 171.528 52.8989C170.856 51.7469 169.704 51.2668 167.88 51.5562L167.208 50.3069L185.832 40.2282L186.504 41.4748C185.256 42.7228 184.872 43.8748 185.448 44.9308C185.832 45.6988 186.6 46.3709 187.56 47.0429L192.744 50.6922V65.6682L183.336 58.6602L184.968 82.0841L192.744 77.8588V87.1709Z" fill="#231F20"/>
<path d="M318.312 62.2107L292.776 23.9081L296.04 60.3867C296.136 61.3467 296.424 61.9227 296.808 62.4027C297.288 62.7867 298.056 63.1707 299.112 63.3627L299.208 64.7068L281.736 66.3401L281.64 64.8987C282.696 64.5161 283.368 64.0347 283.752 63.556C284.04 63.0747 284.232 62.4027 284.136 61.4441L279.624 11.1401C279.528 10.2748 279.24 9.60404 278.856 9.12271C278.376 8.74004 277.608 8.45205 276.552 8.25871L276.456 6.81874L299.304 4.80409L299.496 6.14673C298.152 6.62807 297.48 7.49209 297.672 8.74009C297.672 9.31476 297.96 9.98674 298.44 10.6601L317.352 39.0747L331.08 8.25871C331.752 6.91605 331.944 5.85873 331.944 5.28273C331.848 4.03474 331.08 3.45871 329.544 3.45871L329.448 2.02004L351.816 0.00408936L352.007 1.44406C350.952 1.82806 350.279 2.30671 349.895 2.78671C349.512 3.2667 349.416 3.94009 349.416 4.80409L354.024 55.2027C354.024 56.0667 354.312 56.74 354.792 57.22C355.176 57.604 355.943 57.892 357.096 58.084L357.192 59.5227L338.664 61.1547L338.568 59.8107C339.624 59.4281 340.296 59.0427 340.584 58.4681C340.968 57.9867 341.16 57.22 341.064 56.356L337.8 19.8747L318.312 62.2107Z" fill="#231F20"/>
<path d="M455.88 18.5308C465.768 21.7961 472.776 27.0748 476.808 34.2748C481.128 41.8588 481.8 50.1162 478.92 59.0428C477.192 64.4188 474.024 69.0281 469.512 72.7721C463.08 78.2441 455.4 80.4521 446.472 79.4921V68.9308C449.544 69.1228 452.424 68.5481 455.112 67.3001C457.894 66.1468 460.296 64.3228 462.312 61.9228C464.136 59.8108 465.48 57.4108 466.344 54.7228C468.456 48.2908 467.976 42.5308 464.904 37.4441C462.312 33.1228 458.278 30.0521 452.808 28.2281C450.696 27.4588 448.488 27.0748 446.472 26.9788V16.5161C449.448 16.8041 452.614 17.4748 455.88 18.5308ZM446.472 79.4921C443.4 79.2028 440.136 78.4348 436.776 77.3788C426.984 74.2108 420.072 68.9308 416.04 61.7308C413.83 57.7961 412.584 53.6681 412.296 49.1548C412.006 45.1228 412.488 41.1868 413.83 37.3468C415.656 31.6841 418.824 26.8842 423.24 23.1402C429.672 17.7628 437.448 15.5561 446.472 16.5161V26.9788C443.4 26.8842 440.52 27.4588 437.736 28.6108C432.166 31.0108 428.424 35.3321 426.408 41.4748C424.39 47.6188 424.968 53.2828 427.942 58.4682C430.536 62.8842 434.568 65.9548 440.04 67.7801C442.248 68.4521 444.36 68.8348 446.472 68.9308V79.4921Z" fill="#231F20"/>
<path d="M549.864 89.3801L526.248 116.931C525.672 117.604 525.384 118.275 525.384 118.947C525.384 119.523 525.672 120.291 526.248 121.155L525.384 122.211L512.04 110.787L513 109.731C513.96 110.211 514.727 110.403 515.4 110.307C515.976 110.211 516.552 109.828 517.128 109.155L550.055 70.7561C550.632 70.0841 550.92 69.5068 550.92 68.8348C550.92 68.2588 550.632 67.4921 550.055 66.5308L550.92 65.4748L566.376 78.7228L565.416 79.7802C564.264 79.2028 563.4 79.3001 562.727 80.0668C562.248 80.6441 562.055 81.5068 562.152 82.6602L564.84 130.084L587.88 103.203C588.456 102.531 588.744 101.859 588.744 101.283C588.744 100.707 588.456 99.9402 587.784 98.9788L588.744 97.9228L601.992 109.347L601.128 110.403C600.167 109.923 599.304 109.731 598.727 109.828C598.152 109.923 597.48 110.307 596.905 110.979L563.976 149.38C563.4 150.052 563.112 150.723 563.112 151.3C563.112 151.972 563.4 152.74 564.072 153.604L563.112 154.66L548.905 142.468L549.768 141.316C550.92 141.987 551.784 141.892 552.36 141.123C552.744 140.644 552.936 139.492 552.744 137.38L549.864 89.3801Z" fill="#231F20"/>
<path d="M634.92 181.635L646.632 175.875C647.494 175.492 647.976 175.011 648.264 174.436C648.456 173.86 648.456 173.092 648.264 171.94L649.512 171.363L664.104 201.316C667.368 207.843 669.096 213.22 669.288 217.444C669.288 217.635 669.384 217.828 669.384 218.02V219.267C669.192 224.74 667.368 229.54 663.912 233.86C660.936 237.699 656.808 240.964 651.528 243.459C645.672 246.436 640.104 247.684 634.92 247.395V234.532C638.184 234.436 641.832 233.475 645.768 231.556C651.528 228.772 655.272 225.22 657 220.996C657.96 218.595 658.248 216.195 657.864 213.699C657.576 211.204 656.616 208.228 654.793 204.58L647.688 189.892L634.92 196.132V181.635ZM601.224 198.052L634.92 181.635V196.132L611.688 207.459L618.888 222.147C621.096 226.852 623.494 230.116 625.894 231.843C628.584 233.668 631.56 234.532 634.92 234.532V247.395C631.942 247.204 629.064 246.532 626.278 245.283C623.016 243.94 620.232 241.828 617.736 239.043C615.336 236.259 612.936 232.42 610.44 227.523L595.848 197.571L597.096 196.996C597.864 197.763 598.536 198.244 599.112 198.436C599.688 198.532 600.456 198.436 601.224 198.052Z" fill="#231F20"/>
<path d="M28.9681 465.796L19.1759 477.124L18.1196 476.163C18.5993 475.204 18.7916 474.435 18.6957 473.956C18.504 473.475 17.4477 472.228 15.528 470.211C11.3993 466.18 8.32798 462.628 6.50403 459.555C4.58371 456.58 3.04726 452.74 1.79986 448.228C-0.695976 439.107 -0.600664 431.043 2.08788 424.035C3.62382 419.908 6.02382 416.356 9.19204 413.379C12.7441 409.923 17.1592 407.523 22.2477 406.084C29.2556 404.163 35.8796 404.547 42.1196 407.236C51.528 411.267 57.9597 419.428 61.416 431.811C62.6639 436.323 63.2395 440.452 63.1436 443.908C63.1436 447.46 62.3753 452.068 60.9353 457.732C60.2635 460.419 59.9759 462.051 60.0712 462.532C60.2635 463.012 60.7441 463.587 61.7035 464.163L61.3196 465.508L47.0155 460.804L47.4963 459.46C47.9759 459.363 48.3597 459.267 48.6477 459.172C49.5119 458.979 50.0879 458.404 50.6639 457.54C51.1436 456.58 51.7201 455.14 52.1999 453.028C53.64 447.267 53.64 441.603 52.1035 436.035C50.2801 429.508 47.2077 424.707 42.7916 421.732C37.7035 418.18 32.0395 417.219 25.7999 418.947C19.5597 420.676 15.1436 424.323 12.6478 429.987C10.44 434.883 10.1514 440.547 11.9759 447.076C13.5119 452.644 16.392 457.54 20.6155 461.763C22.0561 463.3 23.304 464.259 24.1681 464.835C25.1275 465.316 25.9916 465.411 26.8561 465.219C27.1436 465.124 27.4316 465.028 27.9119 464.835L28.9681 465.796Z" fill="#231F20"/>
<path d="M69.3841 532.419L56.1357 541.923L78.4076 573.124C78.9836 573.89 79.4633 574.275 80.1357 574.468C80.7112 574.564 81.4794 574.468 82.5357 574.084L83.3997 575.236L70.8232 584.259L69.9596 583.107C70.6314 582.244 71.0153 581.475 71.1117 580.9C71.1117 580.228 70.9194 579.651 70.4398 578.883L38.856 534.723L40.0076 533.956C40.8716 534.628 41.6398 535.012 42.2158 535.107C42.7914 535.107 43.5596 534.916 44.2314 534.34L85.3194 504.963C86.0877 504.483 86.5674 503.908 86.6637 503.331C86.856 502.659 86.6637 501.891 86.3752 500.835L87.4314 500.068L118.44 543.267C118.919 544.035 119.496 544.419 120.071 544.611C120.744 544.707 121.512 544.611 122.567 544.228L123.336 545.379L110.76 554.307L109.991 553.252C110.664 552.387 111.047 551.62 111.047 551.043C111.143 550.371 110.856 549.796 110.375 549.028L88.6794 518.595L77.159 526.852L91.2721 546.628C91.7518 547.3 92.3278 547.779 92.9033 547.875C93.4794 548.068 94.3434 547.875 95.3038 547.491L96.168 548.644L83.8794 557.475L83.0153 556.323C83.6877 555.46 84.071 554.788 84.168 554.116C84.2633 553.54 83.9757 552.867 83.4961 552.099L69.3841 532.419Z" fill="#231F20"/>
<path d="M169.608 590.02L184.968 600.387C188.808 602.883 191.592 605.091 193.512 607.012C195.432 608.931 196.872 611.043 197.736 613.251C198.888 615.748 199.08 618.435 198.6 621.219C198.12 623.908 197.064 626.404 195.432 628.803C190.056 636.867 182.376 638.595 172.488 633.89L172.872 654.051C172.872 657.603 173.064 660.004 173.448 661.251C173.736 662.404 174.504 663.46 175.56 664.323L174.792 665.475L169.608 662.02V620.739C172.008 622.371 173.832 623.523 174.984 624.004C176.04 624.579 177.192 624.867 178.344 624.964C180.84 625.251 182.952 624.099 184.776 621.508C186.504 618.915 186.792 616.516 185.64 614.211C185.064 613.155 184.296 612.291 183.432 611.427C182.568 610.659 180.84 609.411 178.344 607.684L169.608 601.827V590.02ZM147.432 617.667L136.296 634.084C135.816 634.755 135.624 635.427 135.72 636.099C135.816 636.771 136.2 637.443 136.872 638.211L136.104 639.363L120.648 628.995L121.416 627.844C122.472 628.132 123.24 628.228 123.912 628.132C124.488 627.939 124.968 627.46 125.544 626.788L153.768 584.835C154.248 584.067 154.536 583.396 154.44 582.819C154.344 582.147 153.96 581.475 153.192 580.611L154.056 579.46L169.608 590.02V601.827L161.64 596.452L152.904 609.508L169.608 620.739V662.02L156.84 653.379L157.608 652.228C158.952 652.9 159.912 652.803 160.392 652.132C160.68 651.748 160.776 650.307 160.776 647.908L160.584 626.499L147.432 617.667Z" fill="#231F20"/>
<path d="M276.744 649.443L265.704 693.411C265.512 694.275 265.512 694.947 265.8 695.523C266.088 696.099 266.664 696.676 267.624 697.155L267.336 698.499L249.192 693.987L249.576 692.644C250.632 692.644 251.496 692.452 251.976 692.067C252.456 691.684 252.84 691.107 253.032 690.244L264.072 646.275L246.12 641.763C245.256 641.572 244.584 641.572 244.008 641.86C243.432 642.147 242.952 642.723 242.376 643.684L241.032 643.3L244.776 628.323L246.12 628.707C246.216 629.86 246.408 630.628 246.696 631.107C247.08 631.684 247.656 631.972 248.52 632.259L297.096 644.452C297.96 644.644 298.632 644.644 299.208 644.356C299.784 644.068 300.36 643.396 300.84 642.435L302.184 642.819L298.44 657.796L297.096 657.411C297.096 656.356 296.904 655.587 296.52 655.107C296.136 654.532 295.56 654.244 294.696 653.956L276.744 649.443Z" fill="#231F20"/>
<path d="M353.16 702.244L350.856 651.748C350.856 650.883 350.664 650.211 350.184 649.732C349.8 649.251 349.032 648.964 347.976 648.676L347.88 647.331L366.503 646.468L366.6 647.811C365.544 648.195 364.872 648.58 364.488 649.06C364.104 649.539 363.912 650.211 363.912 651.172L366.12 701.667C366.216 702.532 366.408 703.204 366.888 703.684C367.368 704.163 368.04 704.547 369.096 704.739L369.192 706.084L350.568 706.947L350.472 705.508C351.528 705.219 352.2 704.835 352.584 704.356C352.968 703.875 353.16 703.107 353.16 702.244Z" fill="#231F20"/>
<path d="M440.136 666.723L447.144 687.172C447.432 687.939 447.816 688.611 448.391 688.9C448.968 689.188 449.736 689.284 450.792 689.284L451.272 690.532L433.607 696.58L433.128 695.236C434.088 694.659 434.568 694.084 434.856 693.508C435.048 692.931 435.048 692.163 434.76 691.3L418.44 643.491C418.152 642.628 417.768 642.051 417.192 641.763C416.712 641.475 415.848 641.284 414.792 641.379L414.312 640.035L464.328 623.043C465.192 622.756 465.768 622.275 466.055 621.796C466.344 621.219 466.536 620.452 466.44 619.3L467.784 618.819L472.776 633.508L471.432 633.891C470.76 633.027 470.184 632.452 469.607 632.259C469.032 632.068 468.36 632.068 467.495 632.356L432.552 644.259L437.064 657.796L460.007 649.923C460.872 649.636 461.448 649.251 461.736 648.676C462.024 648.195 462.216 647.331 462.12 646.275L463.464 645.796L468.264 660.099L467.016 660.483C466.344 659.62 465.768 659.139 465.192 658.851C464.615 658.659 463.943 658.659 463.08 658.947L440.136 666.723Z" fill="#231F20"/>
<path d="M543.048 640.804L513.576 599.62C513.096 598.947 512.52 598.564 511.942 598.371C511.272 598.275 510.502 598.371 509.448 598.756L508.68 597.603L523.848 586.756L524.614 587.908C523.942 588.676 523.56 589.443 523.464 590.116C523.464 590.692 523.656 591.364 524.136 592.035L553.606 633.219C554.184 633.891 554.76 634.371 555.336 634.564C556.006 634.659 556.776 634.564 557.736 634.18L558.6 635.331L543.432 646.18L542.568 645.028C543.24 644.163 543.624 643.396 543.718 642.819C543.816 642.147 543.528 641.476 543.048 640.804Z" fill="#231F20"/>
<path d="M599.494 559.875L612.552 569.763L635.592 539.043C636.166 538.371 636.36 537.699 636.36 537.124C636.36 536.452 635.976 535.684 635.304 534.819L636.166 533.763L648.456 543.076L647.592 544.132C646.632 543.748 645.768 543.651 645.192 543.748C644.616 543.844 644.04 544.323 643.464 544.995L610.824 588.292L609.768 587.523C610.152 586.467 610.248 585.699 610.152 585.027C610.055 584.452 609.576 583.875 608.905 583.3L568.488 552.963C567.816 552.387 567.144 552.099 566.472 552.195C565.895 552.195 565.128 552.58 564.264 553.252L563.112 552.387L595.176 509.86C595.656 509.188 595.942 508.516 595.848 507.939C595.848 507.267 595.464 506.499 594.793 505.635L595.656 504.58L607.942 513.796L607.08 514.947C606.121 514.564 605.352 514.468 604.776 514.564C604.104 514.659 603.528 515.14 603.048 515.811L580.584 545.667L591.912 554.211L606.408 534.819C606.984 534.147 607.176 533.475 607.176 532.9C607.176 532.228 606.793 531.46 606.121 530.595L606.984 529.54L618.984 538.564L618.121 539.715C617.16 539.331 616.391 539.236 615.816 539.331C615.144 539.428 614.568 539.811 613.992 540.58L599.494 559.875Z" fill="#231F20"/>
<path d="M673.704 475.779L655.942 470.692V457.155L672.264 461.763L676.68 446.02C678.118 441.028 678.502 437.091 677.832 434.116C676.488 427.875 671.494 423.555 662.952 421.155C660.456 420.387 658.152 420.004 655.942 419.908V406.756C659.304 406.756 662.856 407.236 666.6 408.292C676.488 411.172 683.208 416.356 686.664 423.939C688.104 427.107 688.776 430.564 688.776 434.211C688.776 437.86 688.006 442.371 686.472 447.651L677.352 479.715L676.006 479.331C676.006 478.275 675.816 477.411 675.528 476.931C675.144 476.356 674.568 475.972 673.704 475.779ZM655.942 470.692L625.128 461.956C624.264 461.667 623.494 461.667 622.92 461.956C622.344 462.244 621.864 462.819 621.288 463.779L619.942 463.396L629.064 431.331C630.984 424.323 633.384 419.14 636.072 415.875C639.912 411.172 644.905 408.292 650.952 407.236C652.584 406.947 654.216 406.756 655.942 406.756V419.908C652.776 419.811 649.992 420.292 647.494 421.443C645.288 422.595 643.368 424.132 642.024 426.244C640.584 428.356 639.24 431.236 638.184 435.076L633.672 450.819L655.942 457.155V470.692Z" fill="#231F20"/>
</g>
<defs>
<clipPath id="clip0_226:199">
<rect width="688.773" height="706.947" fill="white"/>
</clipPath>
</defs>
</svg>
