<?xml version="1.0"?>
<svg xmlns="http://www.w3.org/2000/svg" width="234" height="46" viewBox="0 0 234 46" fill="none">
<path d="M14.8158 44.6713H6.00326V22.6514H0V15.4822H6.00302V10.3808C6.00302 4.33558 8.65817 0 17.4468 0C19.3056 0 22.2239 0.375539 22.2239 0.375539V7.03256H19.1588C16.0357 7.03256 14.8162 7.98477 14.8162 10.6173V15.4822H22.107L21.4577 22.6514H14.816L14.8158 44.6713ZM35.0363 14.9093C34.9079 14.9093 34.7758 14.914 34.6451 14.9172C26.4736 14.9172 22.7349 21.0782 22.7349 29.8239C22.7349 40.8411 27.5845 45.2506 34.7089 45.2506C38.7851 45.2506 41.4631 43.5309 43.0909 40.3217V44.6744H51.4728V15.4852H43.0909V19.9741C41.7618 17.0861 39.0089 14.9435 35.0363 14.9093ZM37.1676 21.8066C40.5997 21.8066 42.6596 24.2061 42.6596 28.2875L42.6676 32.4562C42.6676 35.2071 40.9662 38.4255 37.1676 38.4255C31.3278 38.4255 31.4838 32.1051 31.4838 30C31.4838 22.9189 34.5953 21.8066 37.1676 21.8066ZM54.8579 30.0813C54.8579 26.5343 54.6886 14.9283 69.7742 14.9283C75.8299 14.9283 78.3585 16.8582 78.3585 16.8582L76.3262 23.1765C76.3262 23.1765 73.8008 21.7827 70.5102 21.7827C66.2956 21.7827 63.6063 24.2316 63.6063 28.5405L63.611 31.6301C63.611 35.7704 66.2058 38.5342 70.5189 38.5342C73.5167 38.5342 76.2796 37.1272 76.2796 37.1272L78.3068 43.3136C78.3068 43.3136 75.9948 45.2557 69.8166 45.2557C55.4526 45.2557 54.8581 34.8428 54.8581 30.0813H54.8579ZM127.505 14.9172C135.677 14.9172 139.474 21.0782 139.474 29.8239C139.474 40.8411 134.625 45.2506 127.5 45.2506C123.424 45.2506 120.411 43.5311 118.783 40.3217V44.6744L110.507 44.6711V0.887509L119.294 0.119319V19.5787C120.562 16.1742 124.73 14.9172 127.505 14.9172H127.505ZM125.041 21.8066C121.609 21.8066 119.294 24.2061 119.294 28.2875L119.286 32.4562C119.281 35.2071 120.889 38.4255 125.041 38.4255C130.881 38.4255 130.725 32.1051 130.725 30C130.725 22.9189 127.614 21.8066 125.041 21.8066ZM93.6056 14.9414C84.3372 14.9414 79.4441 20.0065 79.4441 29.0077V30.68C79.4441 42.3628 86.3155 45.3706 94.5076 45.3706C102.47 45.3706 106.074 43.1382 106.074 43.1382L104.43 37.1934C104.43 37.1934 100.19 39.0014 95.5612 39.0014C90.7621 39.0014 88.6982 37.7754 88.1692 33.1527H106.777V28.3834C106.777 18.6194 101.285 14.9411 93.6053 14.9411L93.6056 14.9414ZM93.8289 20.8942C97.0372 20.8942 99.116 22.8661 99.0019 27.4394H88.1853C88.3729 22.6261 90.6148 20.8944 93.8289 20.8944V20.8942ZM156.996 14.9013C147.478 14.9013 142.468 20.2775 142.468 29.9118C142.468 43.1307 151.105 45.2585 157.012 45.2585C165.66 45.2585 171.413 40.592 171.413 30.0319C171.413 19.0407 164.944 14.9013 156.996 14.9013V14.9013ZM156.877 21.8305C161.062 21.8305 162.72 24.9701 162.72 28.5438V31.6163C162.72 35.9455 160.4 38.4496 156.861 38.4496C153.551 38.4496 151.225 36.1073 151.225 31.6163V28.5438C151.225 23.7541 153.993 21.8305 156.877 21.8305V21.8305ZM188.919 14.9013C179.401 14.9013 174.391 20.2775 174.391 29.9118C174.391 43.1307 183.028 45.2585 188.935 45.2585C197.583 45.2585 203.336 40.592 203.336 30.0319C203.336 19.0407 196.867 14.9013 188.919 14.9013V14.9013ZM188.8 21.8305C192.985 21.8305 194.643 24.9701 194.643 28.5438V31.6163C194.643 35.9455 192.322 38.4496 188.784 38.4496C185.474 38.4496 183.148 36.1073 183.148 31.6163V28.5438C183.148 23.7541 185.916 21.8305 188.8 21.8305V21.8305ZM206.657 44.6713V0.887509L215.47 0.119319V29.466L224.213 15.4822H233.521L224.4 29.9653L233.872 44.6713H224.538L215.47 30.3919V44.6713H206.657Z" fill="#1877F2"/>
</svg>
