<?xml version="1.0"?>
<svg xmlns="http://www.w3.org/2000/svg" width="180" height="59" viewBox="0 0 180 59" fill="none">
<path d="M174.393 36.0575L179.387 39.3828C177.766 41.7675 173.89 45.8585 167.188 45.8585C158.866 45.8585 152.668 39.4266 152.668 31.2444C152.668 22.5372 158.932 16.6303 166.487 16.6303C174.087 16.6303 177.81 22.6685 179.014 25.9282L179.671 27.5909L160.092 35.6855C161.582 38.6171 163.903 40.1048 167.188 40.1048C170.473 40.1048 172.751 38.4858 174.393 36.0575ZM159.041 30.785L172.116 25.3594C171.393 23.5436 169.247 22.2528 166.684 22.2528C163.421 22.2528 158.888 25.1406 159.041 30.785Z" fill="#FF302F"/>
<path d="M143.229 1.73174H149.536V44.524H143.229V1.73174Z" fill="#20B15A"/>
<path d="M133.286 17.7679H139.374V43.7583C139.374 54.5439 133.001 58.985 125.467 58.985C118.372 58.985 114.101 54.2157 112.502 50.3434L118.087 48.0244C119.094 50.409 121.525 53.2312 125.467 53.2312C130.307 53.2312 133.286 50.234 133.286 44.6334V42.5332H133.067C131.622 44.2834 128.862 45.8585 125.358 45.8585C118.043 45.8585 111.342 39.4922 111.342 31.2882C111.342 23.0404 118.043 16.6084 125.358 16.6084C128.84 16.6084 131.622 18.1617 133.067 19.8681H133.286V17.7679ZM133.724 31.2882C133.724 26.1251 130.286 22.3622 125.905 22.3622C121.482 22.3622 117.758 26.1251 117.758 31.2882C117.758 36.3856 121.482 40.0829 125.905 40.0829C130.286 40.1048 133.724 36.3856 133.724 31.2882Z" fill="#3686F7"/>
<path d="M76.7167 31.1788C76.7167 39.6016 70.1465 45.7929 62.087 45.7929C54.0276 45.7929 47.4574 39.5797 47.4574 31.1788C47.4574 22.7122 54.0276 16.5428 62.087 16.5428C70.1465 16.5428 76.7167 22.7122 76.7167 31.1788ZM70.3217 31.1788C70.3217 25.9282 66.511 22.3184 62.087 22.3184C57.6631 22.3184 53.8524 25.9282 53.8524 31.1788C53.8524 36.3856 57.6631 40.0391 62.087 40.0391C66.511 40.0391 70.3217 36.3856 70.3217 31.1788Z" fill="#FF302F"/>
<path d="M108.67 31.2444C108.67 39.6672 102.099 45.8585 94.04 45.8585C85.9806 45.8585 79.4104 39.6672 79.4104 31.2444C79.4104 22.7778 85.9806 16.6303 94.04 16.6303C102.099 16.6303 108.67 22.756 108.67 31.2444ZM102.253 31.2444C102.253 25.9938 98.4421 22.384 94.0181 22.384C89.5942 22.384 85.7835 25.9938 85.7835 31.2444C85.7835 36.4512 89.5942 40.1048 94.0181 40.1048C98.464 40.1048 102.253 36.4294 102.253 31.2444Z" fill="#FFBA40"/>
<path d="M23.4106 39.4485C14.2342 39.4485 7.05079 32.0539 7.05079 22.8872C7.05079 13.7206 14.2342 6.326 23.4106 6.326C28.3601 6.326 31.9737 8.27309 34.6456 10.7671L39.0476 6.36975C35.3245 2.80373 30.353 0.0909271 23.4106 0.0909271C10.8396 0.0909271 0.261597 10.3296 0.261597 22.8872C0.261597 35.4449 10.8396 45.6835 23.4106 45.6835C30.1997 45.6835 35.3245 43.452 39.3323 39.2953C43.4496 35.1824 44.7199 29.4067 44.7199 24.7249C44.7199 23.2591 44.5447 21.7496 44.3475 20.6338H23.4106V26.7158H38.3249C37.8869 30.5225 36.6823 33.1259 34.9084 34.8979C32.7621 37.0638 29.3675 39.4485 23.4106 39.4485Z" fill="#3686F7"/>
</svg>
